<?xml version="1.0" encoding="UTF-8" standalone="no"?>
<svg
   width="1200pt"
   height="1200pt"
   version="1.1"
   viewBox="0 0 1200 1200"
   id="svg59"
   sodipodi:docname="paintbrush.svg"
   inkscape:version="1.1.2 (0a00cf5339, 2022-02-04)"
   xmlns:inkscape="http://www.inkscape.org/namespaces/inkscape"
   xmlns:sodipodi="http://sodipodi.sourceforge.net/DTD/sodipodi-0.dtd"
   xmlns="http://www.w3.org/2000/svg"
   xmlns:svg="http://www.w3.org/2000/svg">
  <defs
     id="defs63" />
  <sodipodi:namedview
     id="namedview61"
     pagecolor="#505050"
     bordercolor="#eeeeee"
     borderopacity="1"
     inkscape:pageshadow="0"
     inkscape:pageopacity="0"
     inkscape:pagecheckerboard="0"
     inkscape:document-units="pt"
     showgrid="false"
     inkscape:zoom="0.460625"
     inkscape:cx="578.56174"
     inkscape:cy="798.91452"
     inkscape:window-width="1920"
     inkscape:window-height="1043"
     inkscape:window-x="0"
     inkscape:window-y="0"
     inkscape:window-maximized="1"
     inkscape:current-layer="svg59" />
  <g
     id="g57">
    <path
       d="m504 1102.8c-48 64.801-127.2 80.398-184.8 81.602-68.398 2.3984-127.2-14.398-156-26.398 74.398-31.199 102-76.801 130.8-124.8 15.602-26.398 31.199-52.801 56.398-79.199 19.199-20.398 45.602-32.398 74.398-32.398 28.801-1.1992 55.199 9.6016 75.602 28.801 48 44.395 34.801 110.39 3.6016 152.39z"
       id="path53"
       style="fill:#ffffff;fill-opacity:1"
       inkscape:export-filename="/home/virgile/Desktop/programming/github-repos/virgileblais.github.io/assets/paintbrush-assets/paintbrush.png"
       inkscape:export-xdpi="96"
       inkscape:export-ydpi="96" />
    <path
       d="m1012.8 88.801-463.2 858c-6-8.3984-12-16.801-20.398-24-27.602-26.398-63.602-40.801-102-39.602l520.8-831.6c9.6016-16.801 31.199-22.801 49.199-13.199l3.6016 2.3984c15.598 9.5977 21.598 31.199 12 48z"
       id="path55"
       style="fill:#ffffff;fill-opacity:1"
       inkscape:export-filename="/home/virgile/Desktop/programming/github-repos/virgileblais.github.io/assets/paintbrush-assets/paintbrush.png"
       inkscape:export-xdpi="96"
       inkscape:export-ydpi="96" />
  </g>
</svg>
